<?xml version="1.0" encoding="UTF-8"?><svg id="Layer_2" xmlns="http://www.w3.org/2000/svg" viewBox="0 0 216 252.16"><defs><style>.cls-1{fill:#1d1d1b;}</style></defs><g id="Layer_3"><g><g><path class="cls-1" d="M203,89H13c-7.17,0-13-5.83-13-13v-24.3c0-11.25,9.15-20.4,20.4-20.4H195.6c11.25,0,20.4,9.15,20.4,20.4v24.3c0,7.17-5.83,13-13,13ZM14,75H202v-23.3c0-3.53-2.87-6.4-6.4-6.4H20.4c-3.53,0-6.4,2.87-6.4,6.4v23.3Z"/><path class="cls-1" d="M169,252.16H47.75c-12.36,0-22.45-9.67-22.98-22.01l-6.66-155.15H198.63l-6.66,155.15c-.53,12.34-10.62,22.01-22.98,22.01ZM32.72,89l6.03,140.55c.21,4.83,4.16,8.61,8.99,8.61h121.25c4.83,0,8.78-3.78,8.99-8.61l6.03-140.55H32.72Z"/></g><rect class="cls-1" x="101.37" y="110.55" width="14" height="106.05" rx="7" ry="7"/><rect class="cls-1" x="62.37" y="110.55" width="14" height="106.05" rx="7" ry="7"/><rect class="cls-1" x="140.37" y="110.55" width="14" height="106.05" rx="7" ry="7"/><path class="cls-1" d="M151.04,45.3H64.96V18.46c0-10.18,8.28-18.46,18.46-18.46h49.12c10.2,0,18.5,8.3,18.5,18.5v26.79Zm-72.08-14h58.08v-12.79c0-2.48-2.02-4.5-4.5-4.5h-49.12c-2.46,0-4.46,2-4.46,4.46v12.84Z"/></g></g></svg>