<?xml version="1.0" encoding="UTF-8"?><svg id="Layer_2" xmlns="http://www.w3.org/2000/svg" viewBox="0 0 264.19 264.18"><defs><style>.cls-1{fill:#1d1d1b;}</style></defs><g id="Layer_1-2"><path class="cls-1" d="M172.81,264.18H42.23c-23.32,0-42.23-18.9-42.23-42.23V91.37c0-23.32,18.9-42.23,42.23-42.23h102.45c3.07,0,5.56,2.49,5.56,5.56v2.88c0,3.07-2.49,5.56-5.56,5.56H42.23c-15.59,0-28.23,12.64-28.23,28.23V221.96c0,15.59,12.64,28.23,28.23,28.23H172.81c15.59,0,28.23-12.64,28.23-28.23V119.64c0-3.07,2.49-5.56,5.56-5.56h2.88c3.07,0,5.56,2.49,5.56,5.56v102.32c0,23.32-18.9,42.23-42.23,42.23Z"/><g><path class="cls-1" d="M146.77,153.63l-9.19-9.19L244.33,37.68c1.97-1.97,1.97-5.16,0-7.13l-10.68-10.68c-1.97-1.97-5.16-1.97-7.13,0L119.76,126.61l-9.19-9.19L226.51,1.48c1.97-1.97,5.16-1.97,7.13,0l29.07,29.07c1.97,1.97,1.97,5.16,0,7.13l-115.95,115.94Z"/><path class="cls-1" d="M98.71,159.3l11.85-41.87,9.19,9.19-5.18,23,23-5.18,9.19,9.19-41.88,11.84c-3.76,1.06-7.24-2.41-6.17-6.17Z"/><rect class="cls-1" x="212.89" y="32.2" width="13" height="25.2" transform="translate(32.58 168.25) rotate(-45)"/></g></g></svg>